;<svg
  id="Capa_1"
  enableBackground="new 0 0 510 510"
  height="512"
  viewBox="0 0 510 510"
  width="512"
  xmlns="http://www.w3.org/2000/svg"
>
  <path d="m10.834 419.765c-7.747 7.747-7.747 20.321 0 28.068l56.36 56.35c7.747 7.757 20.311 7.757 28.068 0l32.15-32.14-84.417-84.417z" />
  <path d="m491.996 5.892c-3.382-7.252-13.428-7.969-17.792-1.261-6.359 9.775-13.994 19.241-22.842 28.089-28.862 28.861-64.227 44.764-95.481 45.868-2.577.091-5.019 1.15-6.842 2.974l-172.759 172.768 98.257 98.257 189.736-189.736c27.129-27.129 40.693-62.698 40.703-98.257-.008-20.079-4.33-40.152-12.98-58.702z" />
  <path d="m109.433 230.789c-5.978-5.979-15.672-5.978-21.651-.001-5.979 5.979-5.979 15.672 0 21.651l45.204 45.205-.002.002-68.342 68.332 84.427 84.417 24.158-24.159c12.799-12.135 27.69-21.842 43.959-28.649l11.094-4.644h.001l36.126 36.127c2.989 2.99 6.907 4.484 10.825 4.484 3.917 0 7.836-1.495 10.825-4.484 5.979-5.978 5.979-15.672 0-21.651z" />
</svg>
